<?xml version="1.0" encoding="utf-8"?>
<!-- Generator: Adobe Illustrator 21.0.2, SVG Export Plug-In . SVG Version: 6.00 Build 0)  -->
<svg version="1.1" id="Capa_1" xmlns="http://www.w3.org/2000/svg" xmlns:xlink="http://www.w3.org/1999/xlink" x="0px" y="0px"
	 viewBox="0 0 568 96" style="enable-background:new 0 0 568 96;" xml:space="preserve">
<style type="text/css">
	.st0{fill:#FFFFFF;}
</style>
<g>
	<path class="st0" d="M41.3,53.9V83h-5.1V53.9L10,12.2h4.5c0.5,0,0.9,0.1,1.1,0.3c0.3,0.2,0.6,0.5,0.8,0.9L36.6,46
		c0.4,0.8,0.8,1.5,1.2,2.2c0.4,0.7,0.7,1.4,0.9,2.1c0.3-0.7,0.6-1.4,0.9-2.1c0.3-0.7,0.7-1.5,1.1-2.2l20.2-32.5
		c0.2-0.4,0.4-0.7,0.7-0.9c0.3-0.2,0.7-0.4,1.2-0.4h4.5L41.3,53.9z"/>
	<path class="st0" d="M138.5,47.6c0,5.5-0.8,10.4-2.5,14.9c-1.6,4.5-3.9,8.2-6.9,11.4c-3,3.2-6.5,5.6-10.7,7.3
		c-4.1,1.7-8.7,2.6-13.7,2.6s-9.6-0.9-13.7-2.6c-4.1-1.7-7.7-4.1-10.6-7.3c-3-3.2-5.3-7-6.9-11.4C71.9,58,71,53.1,71,47.6
		c0-5.4,0.8-10.4,2.4-14.8c1.6-4.4,3.9-8.2,6.9-11.4c3-3.1,6.5-5.6,10.6-7.3c4.1-1.7,8.7-2.6,13.7-2.6s9.6,0.9,13.7,2.6
		c4.1,1.7,7.7,4.2,10.7,7.3c3,3.2,5.3,7,6.9,11.4C137.7,37.2,138.5,42.2,138.5,47.6z M133.2,47.6c0-4.9-0.7-9.4-2-13.3
		c-1.4-3.9-3.3-7.3-5.8-10c-2.5-2.7-5.5-4.8-9-6.3c-3.5-1.4-7.4-2.2-11.6-2.2c-4.2,0-8,0.7-11.5,2.2c-3.5,1.5-6.5,3.5-9,6.3
		c-2.5,2.7-4.5,6.1-5.9,10c-1.4,3.9-2.1,8.4-2.1,13.3c0,5,0.7,9.4,2.1,13.3c1.4,3.9,3.3,7.2,5.9,10c2.5,2.7,5.5,4.8,9,6.2
		s7.4,2.1,11.5,2.1c4.2,0,8.1-0.7,11.6-2.1s6.5-3.5,9-6.2s4.4-6.1,5.8-10C132.5,57,133.2,52.6,133.2,47.6z"/>
	<path class="st0" d="M180.7,79.3c3.4,0,6.4-0.6,9.1-1.8c2.7-1.2,5-2.8,6.8-4.9c1.9-2.1,3.3-4.6,4.3-7.4c1-2.8,1.5-5.9,1.5-9.2V12.2
		h5.1V56c0,3.9-0.6,7.5-1.9,10.9c-1.2,3.4-3,6.3-5.3,8.9s-5.1,4.5-8.4,5.9c-3.3,1.4-7,2.1-11.2,2.1s-7.9-0.7-11.2-2.1
		c-3.3-1.4-6.1-3.4-8.5-5.9s-4.1-5.5-5.3-8.9c-1.2-3.4-1.9-7-1.9-10.9V12.2h5.2V56c0,3.3,0.5,6.4,1.5,9.2c1,2.9,2.4,5.3,4.2,7.4
		c1.9,2.1,4.1,3.8,6.8,5S177.3,79.3,180.7,79.3z"/>
	<path class="st0" d="M276.3,83h-4.4c-0.6,0-1-0.1-1.4-0.3c-0.4-0.2-0.7-0.5-1.1-1L246.7,53c-0.3-0.4-0.5-0.7-0.8-1
		c-0.3-0.3-0.6-0.5-1-0.6c-0.3-0.1-0.8-0.3-1.2-0.3c-0.5-0.1-1.1-0.1-1.8-0.1h-9.2v32h-5.1V12.2h18.1c8.1,0,14.2,1.6,18.3,4.7
		s6.1,7.8,6.1,13.9c0,2.7-0.5,5.2-1.4,7.4c-0.9,2.2-2.3,4.2-4,5.9c-1.8,1.7-3.9,3.1-6.3,4.1c-2.5,1.1-5.3,1.8-8.4,2.1
		c0.8,0.5,1.5,1.2,2.2,2L276.3,83z M244.9,47.2c3.1,0,5.9-0.4,8.4-1.1c2.5-0.8,4.6-1.8,6.3-3.2c1.7-1.4,3-3.1,3.9-5.1
		c0.9-2,1.3-4.2,1.3-6.6c0-5-1.6-8.8-4.9-11.2c-3.3-2.4-8.1-3.7-14.4-3.7h-13v30.9H244.9z"/>
	<path class="st0" d="M328.1,71.9V83h-42.4V10.7h13.5v61.2H328.1z"/>
	<path class="st0" d="M404.1,46.9c0,5.3-0.9,10.2-2.6,14.7s-4.2,8.4-7.4,11.7s-7,5.9-11.5,7.7c-4.5,1.8-9.5,2.8-15,2.8
		c-5.5,0-10.5-0.9-15-2.8c-4.5-1.9-8.4-4.4-11.6-7.7s-5.7-7.2-7.5-11.7c-1.8-4.5-2.7-9.4-2.7-14.7c0-5.3,0.9-10.2,2.7-14.7
		c1.8-4.5,4.3-8.4,7.5-11.7c3.2-3.3,7.1-5.9,11.6-7.7c4.5-1.8,9.5-2.8,15-2.8c3.7,0,7.1,0.4,10.3,1.3c3.2,0.9,6.2,2.1,8.9,3.6
		c2.7,1.6,5.1,3.4,7.3,5.6c2.2,2.2,4,4.7,5.5,7.4c1.5,2.7,2.6,5.7,3.4,8.9C403.8,40,404.1,43.3,404.1,46.9z M390.4,46.9
		c0-4-0.5-7.5-1.6-10.7c-1.1-3.1-2.6-5.8-4.6-8c-2-2.2-4.4-3.9-7.2-5c-2.8-1.2-6-1.8-9.5-1.8c-3.5,0-6.7,0.6-9.5,1.8
		c-2.8,1.2-5.2,2.9-7.2,5c-2,2.2-3.5,4.9-4.6,8c-1.1,3.2-1.6,6.7-1.6,10.7c0,4,0.5,7.5,1.6,10.7c1.1,3.1,2.6,5.8,4.6,8
		s4.4,3.9,7.2,5c2.8,1.2,6,1.8,9.5,1.8c3.5,0,6.7-0.6,9.5-1.8c2.8-1.2,5.2-2.8,7.2-5s3.5-4.9,4.6-8
		C389.9,54.4,390.4,50.8,390.4,46.9z"/>
	<path class="st0" d="M475.6,46.8V76c-3.7,2.7-7.6,4.7-11.7,5.9c-4.1,1.2-8.6,1.9-13.3,1.9c-5.9,0-11.2-0.9-16-2.8
		c-4.8-1.8-8.9-4.4-12.2-7.6c-3.4-3.3-6-7.2-7.8-11.7c-1.8-4.5-2.8-9.5-2.8-14.9c0-5.4,0.9-10.4,2.7-15c1.8-4.5,4.3-8.4,7.5-11.7
		c3.2-3.3,7.2-5.8,11.8-7.6c4.6-1.8,9.8-2.7,15.6-2.7c2.9,0,5.7,0.2,8.2,0.7c2.5,0.5,4.9,1.1,7.1,1.9c2.2,0.8,4.2,1.8,6,3
		c1.8,1.2,3.4,2.5,4.9,3.9l-3.8,6.1c-0.6,1-1.4,1.6-2.3,1.8c-1,0.2-2,0-3.2-0.7c-1.1-0.6-2.2-1.3-3.3-1.9c-1.1-0.6-2.3-1.2-3.7-1.6
		c-1.4-0.5-2.9-0.9-4.6-1.2c-1.7-0.3-3.6-0.4-5.8-0.4c-3.6,0-6.8,0.6-9.7,1.8c-2.9,1.2-5.3,2.9-7.4,5.1c-2,2.2-3.6,4.9-4.7,8.1
		c-1.1,3.1-1.7,6.6-1.7,10.5c0,4.1,0.6,7.8,1.8,11.1c1.2,3.2,2.8,6,5,8.2c2.1,2.2,4.7,4,7.8,5.2c3,1.2,6.4,1.8,10.2,1.8
		c2.7,0,5-0.3,7.1-0.8c2.1-0.6,4.2-1.3,6.2-2.3V56.8h-9.1c-0.9,0-1.5-0.2-2-0.7c-0.5-0.5-0.7-1.1-0.7-1.8v-7.6H475.6z"/>
	<path class="st0" d="M557.5,46.9c0,5.3-0.9,10.2-2.6,14.7s-4.2,8.4-7.4,11.7s-7,5.9-11.5,7.7c-4.5,1.8-9.5,2.8-15,2.8
		c-5.5,0-10.5-0.9-15-2.8c-4.5-1.9-8.4-4.4-11.6-7.7s-5.7-7.2-7.5-11.7c-1.8-4.5-2.7-9.4-2.7-14.7c0-5.3,0.9-10.2,2.7-14.7
		c1.8-4.5,4.3-8.4,7.5-11.7c3.2-3.3,7.1-5.9,11.6-7.7c4.5-1.8,9.5-2.8,15-2.8c3.7,0,7.1,0.4,10.3,1.3c3.2,0.9,6.2,2.1,8.9,3.6
		c2.7,1.6,5.1,3.4,7.3,5.6c2.2,2.2,4,4.7,5.5,7.4c1.5,2.7,2.6,5.7,3.4,8.9C557.2,40,557.5,43.3,557.5,46.9z M543.8,46.9
		c0-4-0.5-7.5-1.6-10.7c-1.1-3.1-2.6-5.8-4.6-8c-2-2.2-4.4-3.9-7.2-5c-2.8-1.2-6-1.8-9.5-1.8c-3.5,0-6.7,0.6-9.5,1.8
		c-2.8,1.2-5.2,2.9-7.2,5c-2,2.2-3.5,4.9-4.6,8c-1.1,3.2-1.6,6.7-1.6,10.7c0,4,0.5,7.5,1.6,10.7c1.1,3.1,2.6,5.8,4.6,8
		s4.4,3.9,7.2,5c2.8,1.2,6,1.8,9.5,1.8c3.5,0,6.7-0.6,9.5-1.8c2.8-1.2,5.2-2.8,7.2-5s3.5-4.9,4.6-8
		C543.3,54.4,543.8,50.8,543.8,46.9z"/>
</g>
<g>
</g>
<g>
</g>
<g>
</g>
<g>
</g>
<g>
</g>
<g>
</g>
</svg>
